<?xml version="1.0" encoding="utf-8"?>
<!-- Generator: Adobe Illustrator 25.2.3, SVG Export Plug-In . SVG Version: 6.00 Build 0)  -->
<svg version="1.1" id="Layer_1" xmlns="http://www.w3.org/2000/svg" x="0px" y="0px"
     viewBox="0 0 600 600" style="enable-background:new 0 0 600 600;" xml:space="preserve">
<g>
	<path d="M245.2,245.2c4.6-1.9,7.4-5,8.3-8.4c0.9-3.4,0.1-7.6-2.9-11.5c-3.1-4-8.2-7.5-14.6-9.2c-6.4-1.8-12.6-1.2-17.3,0.6
		c-4.7,1.9-7.5,5-8.4,8.4s-0.1,7.6,3,11.5c3.1,4,8.2,7.5,14.6,9.2C234.4,247.6,240.5,247,245.2,245.2z"/>
	<path d="M298.8,291.4c-35.3,0-64.1,16.3-65.3,36.6c-0.1,0.5-0.1,1-0.1,1.5c0,8.5,4.9,16.4,13,22.7c8.7,5.6,22,8,30.5,13.2
		c3,1.8,5.8,3.8,8.2,6.3c8.9,9.4,9.1,17.6,7.1,23.3c-4.3,11.9-17.3,20.1-32.3,20.2c-2.3,0.1-4.1,2-4.1,4.3s1.9,4.1,4.2,4.1
		c0.1,0,0.1,0,0.1,0c18.1-0.2,34-10.2,39.8-24.9c6.1,14.2,21.7,23.7,39.4,24c0.1,0,0.1,0,0.1,0c2.3,0,4.2-1.8,4.2-4.1
		c0.1-2.3-1.8-4.3-4.1-4.3c-15-0.2-28.2-8.3-32.3-20.2c-4-11.7,3.5-20.2,5.8-22.4c2.4-2.5,5.2-4.6,8.1-6.3
		c8.6-5.2,20.3-8.1,30.4-13.1c8-4,13-14.2,12.9-22.8c0-0.9-0.1-1.9-0.2-2.7C361.7,307,333.4,291.4,298.8,291.4z"/>
	<path d="M499.3,0H100.7C45.1,0,0,45.1,0,100.7v398.5C0,554.9,45.1,600,100.7,600h398.5c55.6,0,100.7-45.1,100.7-100.7V100.7
		C600,45.1,554.9,0,499.3,0z M446,435.3l-0.4,0.4c-4.1,4.3-8.4,8.4-12.9,12.3l-75,71.4L339,501.2L299,547l-39.1-44.7l-17.6,17.2
		l-74.8-71.3c-4.7-4-9.1-8.3-13.4-12.7l-0.2-0.2c-33.3-34.9-53.8-81.9-53.8-133.4c0-41.7,13.4-80.4,36.1-112.1
		c-12.8-12.7-20.6-30.4-20.2-49.8c0.7-37.4,32.1-67.6,69.5-66.9c27.2,0.5,50.5,16.9,61,40.3c17-4.7,34.9-7.1,53.4-7.1
		c18.6,0,36.5,2.4,53.6,7.1c10.9-24.5,36-41.4,64.8-40.4c34.5,1.3,62.9,28.6,65.5,63c1.6,21-6.5,40.2-20.2,53.8
		c22.7,31.7,36.1,70.4,36.1,112C499.8,353.2,479.4,400.2,446,435.3z"/>
	<path d="M382.4,216.8c-4.7-1.9-10.8-2.4-17.3-0.6c-6.5,1.8-11.6,5.3-14.6,9.2c-3.1,3.9-3.9,8-3,11.5s3.7,6.5,8.4,8.4
		c4.7,1.9,10.8,2.4,17.3,0.6c6.5-1.8,11.6-5.3,14.6-9.2c3.1-3.9,3.9-8,3-11.5C389.8,221.7,387,218.7,382.4,216.8z"/>
</g>
</svg>
