<svg width="19" height="18" viewBox="0 0 19 18" fill="none" xmlns="http://www.w3.org/2000/svg">
<path d="M9.47505 9.725L2.12505 17.075C1.87505 17.325 1.58338 17.4458 1.25005 17.4375C0.916714 17.4292 0.625048 17.3 0.375048 17.05C0.125048 16.8 4.76837e-05 16.5083 4.76837e-05 16.175C4.76837e-05 15.8417 0.125048 15.55 0.375048 15.3L8.05005 7.6C8.25005 7.4 8.47505 7.25 8.72505 7.15C8.97505 7.05 9.22505 7 9.47505 7C9.72505 7 9.97505 7.05 10.225 7.15C10.475 7.25 10.7 7.4 10.9 7.6L18.6 15.3C18.85 15.55 18.9709 15.8458 18.9625 16.1875C18.9542 16.5292 18.825 16.825 18.575 17.075C18.325 17.325 18.0334 17.45 17.7 17.45C17.3667 17.45 17.075 17.325 16.825 17.075L9.47505 9.725Z" fill="#EF5C48" fill-opacity="0.9"/>
<path d="M9.47499 2.725L2.12499 10.075C1.87499 10.325 1.58332 10.4458 1.24999 10.4375C0.916653 10.4292 0.624987 10.3 0.374987 10.05C0.124987 9.8 -1.33514e-05 9.50833 -1.33514e-05 9.175C-1.33514e-05 8.84167 0.124987 8.55 0.374987 8.3L8.04999 0.6C8.24999 0.4 8.47499 0.25 8.72499 0.15C8.97499 0.05 9.22499 0 9.47499 0C9.72499 0 9.97499 0.05 10.225 0.15C10.475 0.25 10.7 0.4 10.9 0.6L18.6 8.3C18.85 8.55 18.9708 8.84583 18.9625 9.1875C18.9542 9.52917 18.825 9.825 18.575 10.075C18.325 10.325 18.0333 10.45 17.7 10.45C17.3667 10.45 17.075 10.325 16.825 10.075L9.47499 2.725Z" fill="#EF5C48"/>
</svg>
