<svg width="19" height="11" viewBox="0 0 19 11" fill="none" xmlns="http://www.w3.org/2000/svg">
<path d="M9.47499 2.725L2.12499 10.075C1.87499 10.325 1.58332 10.4458 1.24999 10.4375C0.916653 10.4292 0.624987 10.3 0.374987 10.05C0.124987 9.8 -1.33514e-05 9.50833 -1.33514e-05 9.175C-1.33514e-05 8.84167 0.124987 8.55 0.374987 8.3L8.04999 0.6C8.24999 0.4 8.47499 0.25 8.72499 0.15C8.97499 0.05 9.22499 0 9.47499 0C9.72499 0 9.97499 0.05 10.225 0.15C10.475 0.25 10.7 0.4 10.9 0.6L18.6 8.3C18.85 8.55 18.9708 8.84583 18.9625 9.1875C18.9542 9.52917 18.825 9.825 18.575 10.075C18.325 10.325 18.0333 10.45 17.7 10.45C17.3667 10.45 17.075 10.325 16.825 10.075L9.47499 2.725Z" fill="#EF5C48"/>
</svg>
