<svg width="12" height="10" viewBox="0 0 12 10" xmlns="http://www.w3.org/2000/svg">
    <path d="M9.77143 4.16667H4.8C4.32686 4.16667 4.28571 4.53917 4.28571 5C4.28571 5.46083 4.32686 5.83333 4.8 5.83333H9.77143C10.2446 5.83333 10.2857 5.46083 10.2857 5C10.2857 4.53917 10.2446 4.16667 9.77143 4.16667ZM11.4857 8.33333H4.8C4.32686 8.33333 4.28571 8.70583 4.28571 9.16667C4.28571 9.6275 4.32686 10 4.8 10H11.4857C11.9589 10 12 9.6275 12 9.16667C12 8.70583 11.9589 8.33333 11.4857 8.33333ZM4.8 1.66667H11.4857C11.9589 1.66667 12 1.29417 12 0.833333C12 0.3725 11.9589 0 11.4857 0H4.8C4.32686 0 4.28571 0.3725 4.28571 0.833333C4.28571 1.29417 4.32686 1.66667 4.8 1.66667ZM2.05714 4.16667H0.514286C0.0411428 4.16667 0 4.53917 0 5C0 5.46083 0.0411428 5.83333 0.514286 5.83333H2.05714C2.53029 5.83333 2.57143 5.46083 2.57143 5C2.57143 4.53917 2.53029 4.16667 2.05714 4.16667ZM2.05714 8.33333H0.514286C0.0411428 8.33333 0 8.70583 0 9.16667C0 9.6275 0.0411428 10 0.514286 10H2.05714C2.53029 10 2.57143 9.6275 2.57143 9.16667C2.57143 8.70583 2.53029 8.33333 2.05714 8.33333ZM2.05714 0H0.514286C0.0411428 0 0 0.3725 0 0.833333C0 1.29417 0.0411428 1.66667 0.514286 1.66667H2.05714C2.53029 1.66667 2.57143 1.29417 2.57143 0.833333C2.57143 0.3725 2.53029 0 2.05714 0Z"/>
</svg>
