<svg width="19" height="11" viewBox="0 0 19 11" fill="none" xmlns="http://www.w3.org/2000/svg">
<path d="M9.4879 7.72501L16.8379 0.375012C17.0879 0.125012 17.3796 0.004179 17.7129 0.0125122C18.0462 0.0208454 18.3379 0.150012 18.5879 0.400012C18.8379 0.650012 18.9629 0.941679 18.9629 1.27501C18.9629 1.60835 18.8379 1.90001 18.5879 2.15001L10.9129 9.85001C10.7129 10.05 10.4879 10.2 10.2379 10.3C9.9879 10.4 9.7379 10.45 9.4879 10.45C9.2379 10.45 8.9879 10.4 8.7379 10.3C8.4879 10.2 8.2629 10.05 8.0629 9.85001L0.362903 2.15001C0.112903 1.90001 -0.00793011 1.60418 0.000403226 1.26251C0.00873656 0.920846 0.137903 0.625012 0.387903 0.375012C0.637903 0.125012 0.92957 1.23978e-05 1.2629 1.23978e-05C1.59624 1.23978e-05 1.8879 0.125012 2.1379 0.375012L9.4879 7.72501Z" fill="#0052CC"/>
</svg>
