<svg width="14" height="14" viewBox="0 0 14 14" xmlns="http://www.w3.org/2000/svg">
    <path d="M7 0C10.8661 0 14 3.13394 14 7C14 10.8661 10.8661 14 7 14C3.13394 14 0 10.8661 0 7C0 3.13394 3.13394 0 7 0ZM9.41459 9.85353C9.54306 9.45865 10.1467 5.52135 10.2208 4.74559C10.2435 4.51047 10.1689 4.35441 10.024 4.28482C9.84818 4.20041 9.58753 4.24241 9.28529 4.35153C8.87065 4.501 3.57165 6.75088 3.26529 6.88141C2.97541 7.00494 2.70035 7.13918 2.70035 7.33435C2.70035 7.47147 2.78188 7.54847 3.00588 7.62835C3.23894 7.71153 3.82612 7.88941 4.17282 7.98494C4.50676 8.07718 4.88682 7.99729 5.09971 7.86471C5.32535 7.72429 7.93182 5.98047 8.11876 5.82771C8.30571 5.67494 8.45477 5.87053 8.302 6.02371C8.14924 6.17647 6.36053 7.91288 6.12418 8.15335C5.83759 8.44529 6.041 8.74753 6.23329 8.869C6.45276 9.00735 8.03065 10.0656 8.26865 10.2356C8.50665 10.4053 8.74712 10.4823 8.96824 10.4823C9.18894 10.4819 9.30465 10.1908 9.41459 9.85353Z"/>
</svg>

