<?xml version="1.0" encoding="UTF-8"?>
<!-- Generated by Pixelmator Pro 3.3 -->
<svg width="4096" height="4096" viewBox="0 0 4096 4096" xmlns="http://www.w3.org/2000/svg" xmlns:xlink="http://www.w3.org/1999/xlink">
    <g id="wolf-copy">
        <path id="path1" fill="#ffffff" fill-rule="evenodd" stroke="none" d="M 519 2142 C 519 2142 517.498535 1958.740479 614 1788 C 708.774475 1620.315186 865.256714 1529.901611 862.937378 1531.848389 C 829.58728 1559.839355 686.913635 1683.857666 625 1807 C 540.062439 1975.935547 519 2142 519 2142"/>
        <path id="path2" fill="#ffffff" fill-rule="evenodd" stroke="none" d="M 1393 1545 C 1393 1545 1372.656494 1539.082275 1369 1516 C 1364.489868 1487.529297 1381 1467 1381 1467 C 1381 1467 1376.402588 1483.625732 1381 1511 C 1382.990601 1522.852539 1393 1545 1393 1545 Z"/>
        <path id="path3" fill="#ffffff" fill-rule="evenodd" stroke="none" d="M 2084 2314 C 2084 2314 2102.872314 2293.881348 2111 2282 C 2114.787354 2276.463379 2117 2262 2117 2262 C 2117 2262 2130.417969 2256.748779 2140 2254 C 2151.675293 2250.650879 2162 2251 2162 2251 C 2162 2251 2146.207764 2273.185547 2136 2282 C 2120.595703 2295.301514 2084 2314 2084 2314 Z"/>
        <path id="path4" fill="#ffffff" fill-rule="evenodd" stroke="none" d="M 1713 2810 C 1713 2810 1506.671875 2778.406494 1407 2748 C 1282.956299 2710.158691 1169 2596 1169 2596 C 1169 2596 1069.091309 2491.343262 1074 2387 C 1079.657837 2266.731934 1203.232178 2164.376953 1201 2166 C 1174.11377 2185.550049 1070.676147 2252.623535 1048 2352 C 1022.592346 2463.347168 1100.459106 2588.112793 1098.138672 2586.580078 C 1073.328979 2570.192871 987.655884 2510.017334 948 2436 C 901.345947 2348.920654 925.670837 2234.227051 924 2236 C 907.684448 2253.3125 850.810791 2318.117188 832 2382 C 808.411438 2462.108887 829.426941 2553.250977 827.728516 2551.792969 C 812.557434 2538.768555 768.564392 2494.366943 748 2403 C 733.893311 2340.324707 734.438843 2223.383789 754 2158 C 822.066833 1930.48291 1006 1862 1006 1862 C 1006 1862 768.422424 1922.070068 663 2143 C 575.305054 2326.778809 644.536194 2571.862793 642.910156 2567.853516 C 626.171448 2526.582031 573.947571 2386.749023 575 2251 C 576.25293 2089.394043 658.011047 1927.574219 660.416016 1923.125 C 689.962769 1868.460205 802.652283 1665.756836 905 1559 C 1040.317627 1417.85376 1414 1160 1414 1160 C 1414 1160 1312.490845 1235.065186 1242 1325 C 1200.600342 1377.818848 1182.919067 1442.689209 1168 1482 C 1140.322998 1554.92749 1188 1651 1188 1651 C 1188 1651 1151.420044 1680.418701 1135 1697 C 1109.951538 1722.294189 1064 1777 1064 1777 C 1064 1777 1129.883057 1732.093018 1165 1714 C 1194.609375 1698.744629 1257 1676 1257 1676 C 1257 1676 1213.279297 1622.187012 1210 1566 C 1206.447388 1505.130371 1243.37561 1441.412109 1245.123047 1438.619141 C 1255.203857 1422.505371 1279.658691 1385.13623 1314 1344 C 1344.525513 1307.434326 1388.179321 1270.686035 1417 1233 C 1480.894409 1149.450439 1507.866577 1081.990723 1509 1084 C 1515.863647 1096.16748 1534.911743 1136.634033 1542 1206 C 1552.376831 1307.549072 1550.038574 1477.031738 1551.828125 1472.291016 C 1554.559204 1465.056396 1561.166992 1455.957031 1564 1457 C 1575.100952 1461.08667 1595.812378 1467.432617 1615 1478 C 1643.474976 1493.681885 1669.670532 1514.29541 1669 1511 C 1665.684082 1494.704102 1657.454346 1450.843994 1648 1417 C 1636.355469 1375.315674 1620.13562 1333.05542 1622 1332 C 1635.280518 1324.483398 1673.04126 1299.74292 1705 1274 C 1746.505005 1240.567871 1787.019897 1196.27124 1787 1199 C 1786.80603 1225.644531 1782.330566 1317.38916 1772 1362 C 1758.091553 1422.062012 1703 1537 1703 1537 L 1737 1577 L 1766 1614 C 1766 1614 1812.721191 1682.716309 1832 1740 C 1851.278809 1797.283447 1843.115601 1843.134033 1842.298828 1844.595703 C 1836.506714 1854.959473 1823.605835 1881.039063 1826 1904 C 1828.833496 1931.172607 1856.768066 1953.352539 1858.025391 1954.419922 C 1875.555908 1969.302734 1947.4375 2030.234131 2016 2087 C 2085.88623 2144.861328 2152.623535 2198.102051 2150.396484 2198.173828 C 2136.181152 2198.631348 2105.11084 2200.263916 2084 2206 C 2055.852051 2213.648193 2034.67041 2225.797363 2034 2227 C 2029.511353 2235.051514 2024.059448 2257.273438 2029 2274 C 2037.16626 2301.647461 2069.519287 2326.240723 2068.664063 2326.917969 C 2060.009766 2333.770996 2028.290405 2356.711182 1990 2358 C 1944.952515 2359.516113 1890.809692 2331.064941 1888.369141 2329.679688 C 1868.845093 2318.598633 1815.213867 2287.996094 1767 2259 C 1721.535156 2231.657227 1681.293457 2204.868652 1676.724609 2202.152344 C 1662.051392 2193.429199 1639.796753 2181.30127 1617 2173 C 1580.71875 2159.788574 1542.57312 2157.827637 1542.849609 2158.640625 C 1546.113892 2168.238037 1559.088501 2201.818115 1587 2223 C 1638.360596 2261.977539 1715.079346 2291.223145 1720 2294 C 1740.720215 2305.692383 1794.47937 2336.702637 1849 2356 C 1878.956299 2366.603027 1912.01123 2370.449463 1935 2372 C 1967.78186 2374.210938 1980.323364 2372.830811 1986 2372 C 1989.764893 2371.448975 1997.767578 2370.093506 1999 2372 C 2006.637451 2383.814453 1896.967896 2427.031006 1776 2352 C 1610.840454 2249.558838 1550 2303 1550 2303 C 1550 2303 1466.165161 2359.228027 1476 2509 C 1489.041382 2707.602539 1713 2810 1713 2810 Z M 1924 2128 C 1924 2128 1861.019775 2066.313721 1828 2033 C 1804.104248 2008.891602 1753 1956 1753 1956 C 1753 1956 1768.445679 1953.463623 1791 1972 C 1830.959229 2004.84082 1892.927612 2054.776123 1891 2053 C 1878.734619 2041.698975 1835.926025 1995.557129 1815 1972 C 1808.245972 1964.396729 1792.330322 1949.912842 1784 1940 C 1773.397827 1927.383789 1765 1911 1765 1911 C 1765 1911 1797.887329 1885.5979 1797 1829 C 1796.303833 1784.59375 1771 1768 1771 1768 C 1771 1768 1786.094238 1818.262207 1778 1842 C 1762.737061 1886.760986 1723 1875 1723 1875 C 1723 1875 1691.287231 1858.859619 1675 1854 C 1658.240356 1848.999512 1625 1846 1625 1846 C 1625 1846 1589.426514 1845.211182 1554 1837 C 1518.573486 1828.788818 1483.2948 1813.156006 1484.830078 1814.166016 C 1500.950562 1824.769287 1553.228271 1859.466797 1577 1879 C 1599.235596 1897.270996 1610.462158 1913.798584 1634 1928 C 1665.417725 1946.955566 1689.174072 1937.239502 1690 1938 C 1704.939575 1951.757568 1768.891235 2010.646484 1800 2038 C 1840.463867 2073.57959 1924 2128 1924 2128 Z M 1248 1963 C 1248 1963 1310.553711 1939.569336 1343 1934 C 1374.272461 1928.63208 1438 1930 1438 1930 C 1438 1930 1408.914551 1914.02124 1393 1910 C 1380.358887 1906.805908 1350 1913 1350 1913 C 1350 1913 1371.537109 1905.442627 1379 1902 C 1385.946411 1898.795654 1393 1893 1393 1893 C 1393 1893 1337.73938 1897.720947 1314 1909 C 1288.520142 1921.105957 1248 1963 1248 1963 Z M 1363 1677 C 1363 1677 1346.384644 1641.211914 1343 1622 C 1340.3396 1606.89917 1343 1576 1343 1576 C 1343 1576 1365.175659 1606.959717 1379 1618 C 1388.918335 1625.920898 1412 1634 1412 1634 C 1412 1634 1410.688843 1625.641357 1409 1622 C 1407.016602 1617.723633 1401 1612 1401 1612 C 1401 1612 1429.836792 1582.009033 1448 1574 C 1472.170044 1563.342285 1528 1556 1528 1556 C 1528 1556 1448.153442 1497.471191 1429 1433 C 1409.136841 1366.139893 1438 1306 1438 1306 C 1438 1306 1458.648315 1265.205811 1465 1243 C 1470.896851 1222.384277 1475 1178 1475 1178 C 1475 1178 1399.536255 1272.182373 1371 1322 C 1345.43457 1366.631348 1312 1460 1312 1460 C 1312 1460 1287.049805 1538.668213 1296 1577 C 1314.324585 1655.480957 1363 1677 1363 1677 Z"/>
        <path id="path5" fill="#ffffff" fill-rule="evenodd" stroke="none" d="M 1700 1891 C 1700 1891 1692.665527 1911.387207 1663 1908 C 1622.82666 1903.413086 1626 1869 1626 1869 L 1653 1875 C 1653 1875 1650.998291 1890.998535 1659 1893 C 1665.524536 1894.63208 1671 1881 1671 1881 L 1700 1891 Z"/>
        <path id="path6" fill="#ffffff" fill-rule="evenodd" stroke="none" d="M 1726 1893 L 1725 1908 L 1746 1893 L 1726 1893 Z"/>
    </g>
    <g id="Gamepad--2">
        <path id="path7" fill="#ffffff" fill-rule="evenodd" stroke="none" d="M 2863.291748 1504.784424 C 2863.291748 1456.484863 2824.137207 1417.330078 2775.837646 1417.330078 C 2727.537842 1417.330078 2688.383301 1456.484863 2688.383301 1504.784424 C 2688.383301 1553.083984 2727.537842 1592.238525 2775.837646 1592.238525 C 2824.137207 1592.238525 2863.291748 1553.083984 2863.291748 1504.784424 Z"/>
        <path id="--2" fill="#ffffff" fill-rule="evenodd" stroke="none" d="M 2863.291748 1875.590332 C 2863.291748 1827.290771 2824.137207 1788.135986 2775.837646 1788.135986 C 2727.537842 1788.135986 2688.383301 1827.290771 2688.383301 1875.590332 C 2688.383301 1923.889893 2727.537842 1963.044678 2775.837646 1963.044678 C 2824.137207 1963.044678 2863.291748 1923.889893 2863.291748 1875.590332 Z"/>
        <path id="-" fill="#ffffff" fill-rule="evenodd" stroke="none" d="M 2678.388672 1689.687744 C 2678.388672 1641.387939 2639.233887 1602.233398 2590.934326 1602.233398 C 2542.634766 1602.233398 2503.480225 1641.387939 2503.480225 1689.687744 C 2503.480225 1737.987305 2542.634766 1777.141846 2590.934326 1777.141846 C 2639.233887 1777.141846 2678.388672 1737.987305 2678.388672 1689.687744 Z"/>
        <path id="--3" fill="#ffffff" fill-rule="evenodd" stroke="none" d="M 3049.19458 1689.687744 C 3049.19458 1641.387939 3010.040039 1602.233398 2961.740234 1602.233398 C 2913.440674 1602.233398 2874.286133 1641.387939 2874.286133 1689.687744 C 2874.286133 1737.987305 2913.440674 1777.141846 2961.740234 1777.141846 C 3010.040039 1777.141846 3049.19458 1737.987305 3049.19458 1689.687744 Z"/>
        <path id="path8" fill="#ffffff" fill-rule="evenodd" stroke="none" d="M 2531.465576 2109.468018 C 2531.465576 2046.816406 2480.67627 1996.027344 2418.024902 1996.027344 C 2355.373291 1996.027344 2304.584229 2046.816406 2304.584229 2109.468018 C 2304.584229 2172.119629 2355.373291 2222.908691 2418.024902 2222.908691 C 2480.67627 2222.908691 2531.465576 2172.119629 2531.465576 2109.468018 Z"/>
        <path id="path9" fill="#ffffff" fill-rule="evenodd" stroke="none" d="M 3171.824219 2966.617188 C 3043.909853 2966.300281 2963.240234 2841.140625 2963.240234 2841.140625 C 2963.240234 2841.140625 2936.012245 2806.990556 2883.017578 2752.867188 L 3373.699219 2260.46875 C 3421.053368 2483.681867 3460.267618 2789.694494 3349.037109 2888.283203 C 3283.653695 2946.235617 3223.833357 2966.74604 3171.824219 2966.617188 Z M 2828.884766 2699.601563 C 2807.509855 2679.307688 2783.656726 2657.473632 2757.347656 2634.519531 C 2753.216197 2630.914907 2749.185347 2627.339798 2745.234375 2623.804688 L 3320.759766 2046.265625 C 3328.922089 2075.086052 3340.934434 2119.2905 3353.830078 2172.820313 L 2828.884766 2699.601563 Z M 2688.039063 2573.611328 C 2674.095337 2562.568435 2660.204949 2553.190716 2645.40625 2546.253906 C 2564.886714 2508.511213 2493.486328 2514.15625 2493.486328 2514.15625 L 2107.730469 2514.15625 L 1539 2509 C 1539 2509 1532.443203 2436.646405 1547 2403 C 1552.967982 2389.205405 1568.661591 2359.526792 1584 2349 C 1594.54315 2341.764204 1615.989806 2342.49036 1626 2343 C 1631.666104 2343.288328 1653.369565 2351.600124 1663 2356 C 1670.15169 2359.267436 1676.29558 2361.121993 1725 2389 C 1730.057831 2391.895124 1759 2405 1759 2405 C 1759 2405 1783.501053 2419.441366 1837 2433 C 1892.682527 2447.11222 1913.321637 2445.6876 1951 2442 C 1971.13611 2440.029309 2005.504464 2429.81318 2017 2421 C 2032.566801 2409.065379 2042 2396 2042 2396 C 2042 2396 2075.771916 2378.040901 2107 2359 C 2140.830608 2338.37256 2170.425851 2319.260394 2182 2302 C 2193.711844 2284.534284 2205.526882 2261.81815 2210 2227 C 2216.094934 2179.558512 2147.118103 2126.99579 2137 2117 C 2100.834201 2081.271455 1915.82151 1931.203106 1912 1928 C 1904.545455 1921.751746 1887.667831 1906.629111 1885 1900 C 1876.950732 1879.999143 1895.000134 1861.595628 1897 1849 C 1900.421244 1827.452522 1906.193827 1759.086147 1862 1672 C 1824.375958 1597.85982 1777 1545 1777 1545 C 1777 1545 1823.009745 1440.240777 1840 1368 C 1858.40614 1289.739483 1852 1196 1852 1196 C 1852 1196 2057.115543 1196.432617 2067.933594 1196.40625 C 2142.601359 1196.22461 2409.551293 1195.30735 2413.527344 1191.449219 C 2423.818053 1181.463195 2445.936891 1160.279476 2466.5 1149.470703 C 2494.009112 1135.010097 2528.081821 1134.132564 2533.666016 1133.373047 C 2558.388035 1130.010274 2606.033785 1126.372375 2662.396484 1136.476563 C 2745.28295 1151.336092 2847.021767 1195.915787 2853.416016 1198.503906 C 2877.166606 1208.116642 2916.33099 1225.657845 2946.248047 1247.419922 C 2976.931945 1269.739612 2991.217544 1304.935575 2993.626953 1309.640625 C 3004.826105 1331.510855 3022.842627 1368.394545 3039.199219 1370.712891 C 3067.426588 1374.713843 3085.175781 1418.857422 3085.175781 1418.857422 C 3085.175781 1418.857422 3167.309297 1605.760085 3203.113281 1699.703125 C 3230.934427 1772.700355 3272.957709 1897.670174 3295.121094 1964.404297 L 2688.039063 2573.611328 Z M 2418.363281 2270.882813 C 2507.700993 2270.882813 2580.125 2198.460637 2580.125 2109.123047 C 2580.125 2019.785457 2507.700993 1947.363281 2418.363281 1947.363281 C 2329.025813 1947.363281 2256.603516 2019.785457 2256.603516 2109.123047 C 2256.603516 2198.460637 2329.025813 2270.882813 2418.363281 2270.882813 Z M 2773.003906 2051.738281 C 2810.88022 2051.688797 2848.738641 2037.190314 2877.599609 2008.253906 L 3096.515625 1788.763672 C 3154.237562 1730.890856 3154.115003 1637.182875 3096.242188 1579.460938 L 2885.476563 1369.246094 C 2827.603747 1311.524157 2733.895765 1311.646472 2676.173828 1369.519531 L 2457.257813 1589.007813 C 2399.53612 1646.880628 2399.658435 1740.590807 2457.53125 1798.3125 L 2668.294922 2008.527344 C 2697.23133 2037.388251 2735.127593 2051.787765 2773.003906 2051.738281 Z M 2265.232422 1744.800781 C 2295.8544 1744.800781 2320.679688 1719.977447 2320.679688 1689.355469 C 2320.679688 1658.73349 2295.8544 1633.908203 2265.232422 1633.908203 C 2234.610688 1633.908203 2209.787109 1658.73349 2209.787109 1689.355469 C 2209.787109 1719.977447 2234.610688 1744.800781 2265.232422 1744.800781 Z M 2048.392578 1511.628906 C 2116.659844 1511.628906 2172.001953 1456.286797 2172.001953 1388.019531 C 2172.001953 1319.752021 2116.659844 1264.410156 2048.392578 1264.410156 C 1980.125068 1264.410156 1924.783203 1319.752021 1924.783203 1388.019531 C 1924.783203 1456.286797 1980.125068 1511.628906 2048.392578 1511.628906 Z"/>
    </g>
</svg>
